<?xml version="1.0"?><svg width="1024" height="768" xmlns="http://www.w3.org/2000/svg" xmlns:xlink="http://www.w3.org/1999/xlink">
 <title>racing flame</title>
 <defs>
  <linearGradient id="linearGradient4206">
   <stop stop-color="#ff3300" id="stop4208" offset="0"/>
   <stop stop-color="#ffff00" id="stop4210" offset="1"/>
  </linearGradient>
  <linearGradient y2="0.768478" x2="0.5725" y1="0.686695" x1="0.059067" id="linearGradient4212" xlink:href="#linearGradient4206"/>
 </defs>
 <metadata id="metadata3110">image/svg+xmlracing flame2011-02-16netalloyracing flamefireheatmotor sportsdecaltatoomotor sports clipart by NetAlloy</metadata>
 <g>
  <title>Layer 1</title>
  <g id="layer1">
   <path fill="url(#linearGradient4212)" stroke="#a26e00" stroke-width="2.109371" stroke-miterlimit="4" id="path4054" d="m763.08313,254.331741c0,0 -65.048828,-28.926575 -105.356384,-29.14064c-39.83136,-0.211472 -65.632385,29.124405 -105.356506,27.67543c-26.440247,-0.964386 -43.550934,-14.611832 -44.56897,-27.892456c-1.555725,-20.293533 12.44635,-33.766907 50.478027,-38.582932c34.288635,-4.341904 57.059509,24.605164 92.469788,24.473831c13.716614,-0.050873 52.175293,-27.838303 52.175293,-27.838303c0,0 -36.714539,23.835663 -49.660828,22.574615c-35.138062,-3.423111 -56.320007,-25.135178 -91.589722,-30.551559c-56.319275,-8.649002 -77.530853,20.213638 -116.16864,37.009155c-19.601471,8.520462 -35.984802,3.080246 -54.68985,8.085526c-83.98053,6.780411 -72.952667,52.383514 -133.769958,35.815231c-15.69632,-5.713074 -32.534531,-19.104248 -32.813873,-33.807434c-0.447525,-23.553757 23.401367,-37.771439 50.540924,-40.210724c30.457336,-2.737656 62.628418,25.669342 96.932953,22.628693c40.367035,-3.578018 61.057861,-39.797516 98.127289,-54.048523c13.961975,-5.367599 39.037354,5.280624 48.717926,11.450043c-8.137024,-6.692993 -28.00528,-21.498962 -45.88916,-22.466019c-38.524963,-2.082962 -64.286316,51.878845 -102.401886,46.614182c-14.646149,-2.022964 -34.531097,-9.955414 -39.602966,-25.884674c10.990997,-96.895523 142.137695,26.889496 194.934601,-75.157906c-60.620056,96.091255 -147.728821,-38.098534 -245.475525,57.955711c-14.187531,8.757584 -38.79129,32.916901 -73.611191,32.776337c-68.361374,-0.275787 -76.550323,56.569489 -130.689789,45.746017c-21.157227,-4.229797 -38.747921,-17.177231 -38.408569,-45.420303c0.19833,-16.510361 23.711056,-35.05249 57.518578,-32.88501c30.712563,1.969025 66.604332,29.27742 93.601265,21.163635c33.580551,-10.092453 38.583069,-42.31485 71.03389,-54.862602c17.507782,-6.769699 57.581451,0 57.581451,0c0,0 -39.496887,-12.53611 -58.775818,-8.411102c-53.802536,6.288643 -62.229034,71.924416 -123.712128,33.807503c-11.985809,-14.250443 4.002045,-40.290169 20.995865,-50.032974c26.555847,-15.224937 63.561005,2.628197 95.36142,4.55825c36.451859,2.212585 101.081833,-22.248817 101.081833,-22.248817c0,0 -63.752319,19.984177 -105.985062,12.752403c-31.800842,-5.445427 -65.643555,-26.651413 -95.550003,-15.845558c-27.150963,9.81031 -46.045349,38.94236 -69.085159,54.754013c-20.829094,14.294678 -79.620147,15.899857 -79.620147,15.899857c-2.330897,91.51326 -1.463714,147.690521 0,173.649811c0,0 51.284168,3.568298 71.133819,17.039368c21.956375,14.90094 38.70639,42.198944 65.250595,51.49823c29.238037,10.24295 64.808334,-9.470123 97.184402,-14.434692c42.996689,-6.593414 105.545029,12.42691 105.545029,12.42691c0,0 -63.082123,-23.19043 -99.887466,-21.272308c-32.108704,1.673492 -70.643784,18.219269 -96.17865,3.852844c-16.340469,-9.193359 -30.415817,-33.647766 -17.28698,-46.939606c64.690071,-35.429382 68.164696,26.065308 121.763374,32.179474c19.063812,3.943207 59.718781,-7.651489 59.718781,-7.651489c0,0 -40.750153,6.194763 -57.832901,-0.217072c-31.663116,-11.884399 -43.684143,-47.880066 -67.262161,-51.660828c-41.759216,-6.696136 -49.976944,15.204742 -79.268776,20.186798c-34.295227,8.517059 -50.512779,-14.205048 -53.118286,-29.846039c0.074219,-14.484894 10.269974,-27.44426 32.250946,-31.959793c47.095222,-12.780853 43.083771,24.177444 109.439644,26.099075c112.405426,-1.623871 108.564972,59.919891 211.090088,60.668945c35.363525,0.258514 100.771729,-68.295349 150.805542,2.442047c-35.499146,-63.785248 -77.180481,-23.30722 -147.91391,-27.024292c-13.031616,-0.684967 -47.550018,-15.203644 -45.57486,-34.404449c1.805298,-17.549637 8.928864,-25.398056 31.996674,-32.450836c60.762268,-17.433105 85.832794,41.604401 156.148773,35.923767c42.494568,-3.432983 66.768555,-38.780899 109.316772,-40.427902c37.554626,-1.453506 103.910583,21.869141 103.910583,21.869141zm-240.635071,-89.04985c-0.263062,-0.681244 -1.629395,-1.82309 -3.771729,-3.201691c2.282654,1.882935 3.771729,3.201691 3.771729,3.201691z"/>
  </g>
  <g id="svg_1">
   <path id="svg_2" fill="url(#linearGradient4212)" stroke="#a26e00" stroke-width="2.109371" stroke-miterlimit="4" d="m1020.552612,448.510925c0,0 -86.987366,-33.576172 -140.889099,-33.824615c-53.264954,-0.245483 -87.7677,33.805725 -140.88916,32.123932c-35.357605,-1.119415 -58.239075,-16.96048 -59.600464,-32.375824c-2.080383,-23.55545 16.644043,-39.194519 67.50238,-44.784668c45.852783,-5.039795 76.303528,28.56012 123.656189,28.407715c18.342712,-0.059021 69.772095,-32.312897 69.772095,-32.312897c0,0 -49.096924,27.666901 -66.409546,26.203094c-46.98877,-3.973236 -75.314575,-29.175262 -122.47937,-35.46225c-75.31366,-10.039215 -103.679077,23.462738 -155.3479,42.957855c-26.212219,9.890045 -48.121033,3.575348 -73.134583,9.385223c-112.304016,7.870209 -97.556824,60.803467 -178.885468,41.572052c-20.990112,-6.631439 -43.507202,-22.175079 -43.880737,-39.241577c-0.59848,-27.339661 31.293762,-43.842621 67.586395,-46.674072c40.729462,-3.177643 83.75061,29.795349 129.624756,26.265991c53.981323,-4.153198 81.65033,-46.194397 131.221863,-62.736053c18.670837,-6.230377 52.203125,6.129395 65.148682,13.290466c-10.881409,-7.76889 -37.450439,-24.954712 -61.365845,-26.077148c-51.517944,-2.417786 -85.967651,60.217651 -136.938171,54.106812c-19.585693,-2.348175 -46.177094,-11.555695 -52.959503,-30.045288c14.697784,-112.4702 190.075287,31.211609 260.678558,-87.238541c-81.06488,111.536636 -197.552094,-44.222382 -328.264984,67.271255c-18.972473,10.165283 -51.874146,38.207886 -98.437439,38.044708c-91.417023,-0.320099 -102.367798,65.662323 -174.766434,53.099091c-28.292763,-4.909698 -51.816116,-19.938263 -51.362305,-52.721008c0.265213,-19.164185 31.707878,-40.686676 76.917381,-38.170868c41.070717,2.285583 89.067421,33.983337 125.169395,24.56543c44.905945,-11.714661 51.595642,-49.116394 94.990875,-63.681c23.412506,-7.85788 77.001465,0 77.001465,0c0,0 -52.817657,-14.551178 -78.598633,-9.763092c-71.948059,7.299469 -83.216492,83.485321 -165.435486,39.241577c-16.028168,-16.540955 5.351791,-46.766266 28.076981,-58.075058c35.512115,-17.67215 84.997696,3.050598 127.523178,5.290878c48.745667,2.568268 135.172852,-25.825027 135.172852,-25.825027c0,0 -85.253571,23.196411 -141.729767,14.802155c-42.526031,-6.320648 -87.782623,-30.935211 -127.775375,-18.392456c-36.307922,11.387146 -61.574661,45.201767 -92.384933,63.555008c-27.853943,16.592316 -106.472955,18.455536 -106.472955,18.455536c-3.117025,106.222748 -1.957372,171.429779 0,201.561615c0,0 68.580339,4.141907 95.124506,19.778259c29.361427,17.296082 51.760574,48.981873 87.257141,59.775879c39.098907,11.889465 86.66568,-10.992249 129.960968,-16.754883c57.497864,-7.653137 141.141296,14.424316 141.141296,14.424316c0,0 -84.3573,-26.917969 -133.575653,-24.691528c-42.937714,1.942505 -94.469223,21.147766 -128.616013,4.472229c-21.851486,-10.671143 -40.67392,-39.056213 -23.117233,-54.484558c86.507568,-41.124207 91.154053,30.254944 162.829498,37.351929c25.493286,4.577026 79.85965,-8.881409 79.85965,-8.881409c0,0 -54.493622,7.190491 -77.337738,-0.251953c-42.341888,-13.794617 -58.417114,-55.576172 -89.947113,-59.9646c-55.842987,-7.7724 -66.832245,17.648743 -106.003082,23.43158c-45.861694,9.886047 -67.54882,-16.488342 -71.033051,-34.643433c0.099251,-16.813141 13.733643,-31.855591 43.127945,-37.096954c62.978653,-14.835083 57.614288,28.06369 146.349442,30.294159c150.31546,-1.884827 145.179779,69.55127 282.282684,70.420715c47.290283,0.300049 134.758179,-79.272858 201.666443,2.834595c-47.47168,-74.037842 -103.21051,-27.053589 -197.799622,-31.368103c-17.426636,-0.795044 -63.586792,-17.647461 -60.945435,-39.934448c2.414124,-20.370575 11.940216,-29.480499 42.787903,-37.666931c81.255005,-20.23526 114.780884,48.291748 208.811768,41.698059c56.826355,-3.984802 89.287048,-45.014435 146.18512,-46.926147c50.220337,-1.687134 138.955688,25.384277 138.955688,25.384277zm-321.792114,-103.363434c-0.351807,-0.79068 -2.178894,-2.11615 -5.043823,-3.716278c3.052551,2.185638 5.043823,3.716278 5.043823,3.716278z"/>
  </g>
  <g id="svg_3">
   <path id="svg_4" fill="url(#linearGradient4212)" stroke="#a26e00" stroke-width="2.109371" stroke-miterlimit="4" d="m691.017883,625.872986c0,0 -58.999023,-28.187256 -95.557739,-28.395935c-36.126953,-0.205994 -59.528381,28.380066 -95.557892,26.968079c-23.981232,-0.939758 -39.500549,-14.238281 -40.42392,-27.179565c-1.411011,-19.774963 11.288818,-32.903809 45.783386,-37.596802c31.099548,-4.230957 51.752686,23.976318 83.869629,23.848267c12.440918,-0.049561 47.322815,-27.126831 47.322815,-27.126831c0,0 -33.299927,23.22644 -45.042175,21.997681c-31.870117,-3.33551 -51.082031,-24.492676 -83.071503,-29.770691c-51.081299,-8.427979 -70.320099,19.697083 -105.364441,36.063171c-17.778412,8.302795 -32.638031,3.001709 -49.603455,7.878967c-76.169983,6.607117 -66.167755,51.044739 -121.328796,34.899963c-14.236511,-5.567078 -29.508698,-18.616028 -29.762054,-32.94342c-0.405899,-22.951904 21.224945,-36.806091 45.840393,-39.182983c27.624725,-2.667786 56.803741,25.013184 87.917816,22.050293c36.612732,-3.486572 55.379242,-38.780518 89.001038,-52.667236c12.663452,-5.230347 35.406738,5.145691 44.186981,11.15741c-7.380249,-6.521973 -25.400665,-20.949524 -41.621277,-21.891785c-34.941986,-2.029785 -58.307434,50.552856 -92.878113,45.422729c-13.283966,-1.971191 -31.31955,-9.700928 -35.919708,-25.223022c9.96875,-94.419128 128.918304,26.202271 176.80484,-73.237061c-54.982117,93.635376 -133.989441,-37.124847 -222.645279,56.474548c-12.868027,8.533691 -35.183533,32.075562 -66.765045,31.938599c-62.003448,-0.26886 -69.430786,55.123657 -118.535057,44.576843c-19.189503,-4.121704 -35.144184,-16.738098 -34.836407,-44.25946c0.179886,-16.08844 21.505836,-34.156677 52.169102,-32.044617c27.856155,1.918762 60.409851,28.529175 84.89595,20.622864c30.457397,-9.834534 34.994659,-41.23349 64.427429,-53.46048c15.879501,-6.596741 52.226166,0 52.226166,0c0,0 -35.823532,-12.215759 -53.309464,-8.196136c-48.79866,6.127899 -56.441452,70.086243 -112.206352,32.943481c-10.871086,-13.886261 3.629845,-39.260468 19.043159,-48.754211c24.086044,-14.835907 57.649551,2.560913 86.492401,4.441742c33.061707,2.155945 91.680817,-21.680267 91.680817,-21.680267c0,0 -57.82309,19.473419 -96.128036,12.426514c-28.843216,-5.306305 -59.538422,-25.970276 -86.663437,-15.440582c-24.625816,9.55957 -41.762924,37.947113 -62.659943,53.354645c-18.891891,13.929321 -72.215127,15.493408 -72.215127,15.493408c-2.114111,89.1745 -1.327579,143.915955 0,169.211731c0,0 46.514531,3.477173 64.518067,16.604004c19.914337,14.519958 35.106544,41.1203 59.182014,50.182007c26.518768,9.981079 58.780869,-9.228027 88.145813,-14.065735c38.997849,-6.424927 95.728912,12.109192 95.728912,12.109192c0,0 -57.215225,-22.597717 -90.597519,-20.728516c-29.122452,1.630554 -64.073608,17.753601 -87.233612,3.754272c-14.820724,-8.958374 -27.587013,-32.78772 -15.679222,-45.739807c58.673637,-34.523926 61.825081,25.399048 110.43885,31.357056c17.290802,3.842346 54.164734,-7.456116 54.164734,-7.456116c0,0 -36.960266,6.036438 -52.454239,-0.211426c-28.718323,-11.580627 -39.621338,-46.656372 -61.0065,-50.340393c-37.875427,-6.525208 -45.328865,14.816101 -71.896431,19.670715c-31.105625,8.299438 -45.814869,-13.84198 -48.178051,-29.083313c0.067314,-14.114624 9.314819,-26.742737 29.251469,-31.142761c42.715164,-12.454285 39.076797,23.559387 99.261276,25.431824c101.951248,-1.582397 98.467972,58.38855 191.45784,59.118469c32.074554,0.251892 91.399536,-66.549805 136.779999,2.379761c-32.197601,-62.155212 -70.00238,-22.711609 -134.157318,-26.333679c-11.819611,-0.66748 -43.127686,-14.815063 -41.336182,-33.525208c1.63736,-17.101074 8.09845,-24.748901 29.020844,-31.62146c55.111115,-16.987549 77.849976,40.541016 141.626282,35.005676c38.542389,-3.345276 60.558807,-37.789795 99.149811,-39.394592c34.06189,-1.416565 94.24646,21.310181 94.24646,21.310181zm-218.254944,-86.773987c-0.238586,-0.663879 -1.477875,-1.776489 -3.420959,-3.119873c2.070374,1.834717 3.420959,3.119873 3.420959,3.119873z"/>
  </g>
 </g>
</svg>