# OBJ written from C:\Users\andre_000\Documents\UDev3D\Terrain\Assets\Models\HoverCarCollider.obj
# Units	meters

o Mesh
v 0.7437 0.4225 -1.08136
v 1.11 0.4225 -0.690306
v 0.73815 0.280962 1.08618
v 0.494561 0.280962 1.34622
v -1.11 0.4225 -0.690306
v -0.7437 0.4225 -1.08136
v -0.73815 0.280962 1.08618
v -0.494561 0.280962 1.34622
v 0.494561 -0.114713 1.34622
v 0.320076 -0.280962 1.01574
v 0.73815 -0.114713 1.08618
v 0.428583 -0.280962 0.899902
v 1.11 -0.1725 -0.690306
v 0.644486 -0.4225 -0.410194
v 0.7437 -0.1725 -1.08136
v 0.481317 -0.4225 -0.584388
v -0.494561 -0.114713 1.34622
v -0.320076 -0.280962 1.01574
v -0.73815 -0.114713 1.08618
v -0.428583 -0.280962 0.899902
v -1.11 -0.1725 -0.690306
v -0.644486 -0.4225 -0.410194
v -0.7437 -0.1725 -1.08136
v -0.481317 -0.4225 -0.584388
vn 0.105018 -0.909551 -0.402104
vn 0.395105 -0.905979 -0.151967
vn 0.0931023 -0.986519 -0.134585
vn 0.26755 -0.962478 0.0453176
vn 0 0 -1
vn -0.105018 -0.909551 0.402104
vn -0.388469 -0.89425 0.222283
vn -0.123554 -0.967148 0.222168
vn -0.180947 -0.96968 0.164253
vn -0.303008 -0.952151 -0.0399251
vn -0.0553508 -0.985772 -0.158713
vn 0.0619737 -0.965391 0.253337
vn 0.289273 -0.93164 0.219927
vn 0.413606 -0.888522 0.198642
vn 0.978788 0 0.204878
vn 0.92627 0 0.37686
vn 0.84046 0 0.541874
vn -0.210037 -0.913431 -0.348609
vn 0.729825 0 0.683634
vn 0.210037 -0.913431 0.348609
vn 0.729825 0 -0.683634
vn -0.434511 -0.897224 -0.0786643
vn -0.729825 0 -0.683634
vn -0.88721 0 0.461366
vn -0.729825 0 0.683634
vn -0.978788 0 0.204878
vn 0.0692077 0.995494 0.0648275
vn 0.0096674 0.998387 0.0559547
vn 0.0346246 0.997282 0.0650328
vn -0.0268321 0.998541 0.0468597
vn -0.0268329 0.998475 0.048252
vn 0.0227467 0.997312 0.0696571
vn 0.0542468 0.994857 0.0855353
vn 0.108319 0.988925 0.101464
vn 0 0 1
vt 0.721129 0.372388
vt 0.779291 0.294838
vt 0.778871 0.404278
vt 0.803209 0.371828
vt 0.5 0.388333
vt 0.676036 0.388333
vt 0.5 0.611667
vt 0.676036 0.611667
vt 1.02887 0.627612
vt 0.970709 0.705162
vt 0.971129 0.595722
vt 0.946791 0.628172
vt 0.803209 0.628172
vt 0.778871 0.595722
vt 0.971129 0.404278
vt 0.946791 0.371828
vt 0.970709 0.294838
vt 0.45875 0.333333
vt 0.29125 0.333333
vt 0.45875 0.0986193
vt 0.29125 0.0986193
vt 0.25 0.278333
vt 0.25 0.388333
vt 0.0739645 0.278333
vt 0.0739645 0.388333
vt 1.02887 0.372388
vt 0.54125 0.333333
vt 0.54125 0.0986193
vt 0.779291 0.705162
vt 0.721129 0.627612
vt 0.54125 0.901381
vt 0.45875 0.901381
vt 0.54125 0.666667
vt 0.45875 0.666667
vt 0.0739645 0.721667
vt 0.0739645 0.611667
vt 0.25 0.721667
vt 0.25 0.611667
vt 0.29125 0.666667
vt 0.29125 0.901381
usemtl Default
g Default
f 15/1/1 13/2/2 16/3/3
f 14/4/4 16/3/3 13/2/2
f 1/5/5 15/6/5 6/7/5
f 23/8/5 6/7/5 15/6/5
f 17/9/6 19/10/7 18/11/8
f 20/12/9 18/11/8 19/10/7
f 22/13/10 24/14/11 20/12/9
f 18/11/8 20/12/9 24/14/11
f 24/14/11 16/3/3 18/11/8
f 10/15/12 18/11/8 16/3/3
f 16/3/3 14/4/4 10/15/12
f 12/16/13 10/15/12 14/4/4
f 13/2/2 11/17/14 14/4/4
f 12/16/13 14/4/4 11/17/14
f 2/18/15 3/19/16 13/20/15
f 11/21/17 13/20/15 3/19/16
f 23/8/18 15/6/1 24/14/11
f 16/3/3 24/14/11 15/6/1
f 3/22/16 4/23/19 11/24/17
f 9/25/19 11/24/17 4/23/19
f 11/17/14 9/26/20 12/16/13
f 10/15/12 12/16/13 9/26/20
f 1/27/21 2/18/21 15/28/21
f 13/20/21 15/28/21 2/18/21
f 21/29/22 23/30/18 22/13/10
f 24/14/11 22/13/10 23/30/18
f 23/31/23 21/32/23 6/33/23
f 5/34/23 6/33/23 21/32/23
f 9/26/20 17/9/6 10/15/12
f 18/11/8 10/15/12 17/9/6
f 19/35/24 17/36/25 7/37/24
f 8/38/25 7/37/24 17/36/25
f 5/34/26 21/32/26 7/39/24
f 19/40/24 7/39/24 21/32/26
f 5/34/27 7/39/28 6/7/29
f 1/5/30 6/7/29 7/39/28
f 7/39/28 8/38/31 1/5/30
f 2/18/32 1/5/30 8/38/31
f 8/38/31 4/23/33 2/18/32
f 3/19/34 2/18/32 4/23/33
f 21/29/22 22/13/10 19/10/7
f 20/12/9 19/10/7 22/13/10
f 9/25/35 4/23/35 17/36/35
f 8/38/35 17/36/35 4/23/35
